<svg width="524" height="507" viewBox="0 0 524 507" fill="none" xmlns="http://www.w3.org/2000/svg">
<rect x="140" y="112" width="104" height="182" transform="rotate(-90 140 112)" fill="#D6BCFA"/>
<rect x="342" y="375" width="235" height="182" transform="rotate(-90 342 375)" fill="#9F7AEA"/>
<rect x="140" y="501" width="98" height="182" transform="rotate(-90 140 501)" fill="#6B46C1"/>
<path d="M58.16 17.408C59.104 17.584 59.88 18.056 60.488 18.824C61.096 19.592 61.4 20.472 61.4 21.464C61.4 22.36 61.176 23.152 60.728 23.84C60.296 24.512 59.664 25.04 58.832 25.424C58 25.808 57.016 26 55.88 26H48.656V9.248H55.568C56.704 9.248 57.68 9.432 58.496 9.8C59.328 10.168 59.952 10.68 60.368 11.336C60.8 11.992 61.016 12.736 61.016 13.568C61.016 14.544 60.752 15.36 60.224 16.016C59.712 16.672 59.024 17.136 58.16 17.408ZM52.016 16.16H55.088C55.888 16.16 56.504 15.984 56.936 15.632C57.368 15.264 57.584 14.744 57.584 14.072C57.584 13.4 57.368 12.88 56.936 12.512C56.504 12.144 55.888 11.96 55.088 11.96H52.016V16.16ZM55.4 23.264C56.216 23.264 56.848 23.072 57.296 22.688C57.76 22.304 57.992 21.76 57.992 21.056C57.992 20.336 57.752 19.776 57.272 19.376C56.792 18.96 56.144 18.752 55.328 18.752H52.016V23.264H55.4ZM67.4379 14.768C67.8699 14.064 68.4299 13.512 69.1179 13.112C69.8219 12.712 70.6219 12.512 71.5179 12.512V16.04H70.6299C69.5739 16.04 68.7739 16.288 68.2299 16.784C67.7019 17.28 67.4379 18.144 67.4379 19.376V26H64.0779V12.704H67.4379V14.768ZM72.917 19.304C72.917 17.96 73.181 16.768 73.709 15.728C74.253 14.688 74.981 13.888 75.893 13.328C76.821 12.768 77.853 12.488 78.989 12.488C79.981 12.488 80.845 12.688 81.581 13.088C82.333 13.488 82.933 13.992 83.381 14.6V12.704H86.765V26H83.381V24.056C82.949 24.68 82.349 25.2 81.581 25.616C80.829 26.016 79.957 26.216 78.965 26.216C77.845 26.216 76.821 25.928 75.893 25.352C74.981 24.776 74.253 23.968 73.709 22.928C73.181 21.872 72.917 20.664 72.917 19.304ZM83.381 19.352C83.381 18.536 83.221 17.84 82.901 17.264C82.581 16.672 82.149 16.224 81.605 15.92C81.061 15.6 80.477 15.44 79.853 15.44C79.229 15.44 78.653 15.592 78.125 15.896C77.597 16.2 77.165 16.648 76.829 17.24C76.509 17.816 76.349 18.504 76.349 19.304C76.349 20.104 76.509 20.808 76.829 21.416C77.165 22.008 77.597 22.464 78.125 22.784C78.669 23.104 79.245 23.264 79.853 23.264C80.477 23.264 81.061 23.112 81.605 22.808C82.149 22.488 82.581 22.04 82.901 21.464C83.221 20.872 83.381 20.168 83.381 19.352ZM97.4146 12.512C98.9986 12.512 100.279 13.016 101.255 14.024C102.231 15.016 102.719 16.408 102.719 18.2V26H99.3586V18.656C99.3586 17.6 99.0946 16.792 98.5666 16.232C98.0386 15.656 97.3186 15.368 96.4066 15.368C95.4786 15.368 94.7426 15.656 94.1986 16.232C93.6706 16.792 93.4066 17.6 93.4066 18.656V26H90.0466V12.704H93.4066V14.36C93.8546 13.784 94.4226 13.336 95.1106 13.016C95.8146 12.68 96.5826 12.512 97.4146 12.512ZM105.05 19.304C105.05 17.96 105.314 16.768 105.842 15.728C106.386 14.688 107.122 13.888 108.05 13.328C108.978 12.768 110.01 12.488 111.146 12.488C112.01 12.488 112.834 12.68 113.618 13.064C114.402 13.432 115.026 13.928 115.49 14.552V8.24H118.898V26H115.49V24.032C115.074 24.688 114.49 25.216 113.738 25.616C112.986 26.016 112.114 26.216 111.122 26.216C110.002 26.216 108.978 25.928 108.05 25.352C107.122 24.776 106.386 23.968 105.842 22.928C105.314 21.872 105.05 20.664 105.05 19.304ZM115.514 19.352C115.514 18.536 115.354 17.84 115.034 17.264C114.714 16.672 114.282 16.224 113.738 15.92C113.194 15.6 112.61 15.44 111.986 15.44C111.362 15.44 110.786 15.592 110.258 15.896C109.73 16.2 109.298 16.648 108.962 17.24C108.642 17.816 108.482 18.504 108.482 19.304C108.482 20.104 108.642 20.808 108.962 21.416C109.298 22.008 109.73 22.464 110.258 22.784C110.802 23.104 111.378 23.264 111.986 23.264C112.61 23.264 113.194 23.112 113.738 22.808C114.282 22.488 114.714 22.04 115.034 21.464C115.354 20.872 115.514 20.168 115.514 19.352Z" fill="#553C9A"/>
<path d="M46.704 50.848C47.92 50.848 48.9707 51.0773 49.856 51.536C50.752 51.984 51.4347 52.6293 51.904 53.472C52.384 54.3147 52.624 55.3067 52.624 56.448C52.624 57.5893 52.384 58.5813 51.904 59.424C51.4347 60.256 50.752 60.896 49.856 61.344C48.9707 61.7813 47.92 62 46.704 62H43.232V50.848H46.704ZM46.704 60.8C48.144 60.8 49.2427 60.4213 50 59.664C50.7573 58.896 51.136 57.824 51.136 56.448C51.136 55.0613 50.752 53.9787 49.984 53.2C49.2267 52.4213 48.1333 52.032 46.704 52.032H44.688V60.8H46.704ZM55.2965 51.808C55.0192 51.808 54.7845 51.712 54.5925 51.52C54.4005 51.328 54.3045 51.0933 54.3045 50.816C54.3045 50.5387 54.4005 50.304 54.5925 50.112C54.7845 49.92 55.0192 49.824 55.2965 49.824C55.5632 49.824 55.7872 49.92 55.9685 50.112C56.1605 50.304 56.2565 50.5387 56.2565 50.816C56.2565 51.0933 56.1605 51.328 55.9685 51.52C55.7872 51.712 55.5632 51.808 55.2965 51.808ZM56.0005 53.232V62H54.5445V53.232H56.0005ZM61.586 62.144C60.914 62.144 60.3113 62.032 59.778 61.808C59.2447 61.5733 58.8233 61.2533 58.514 60.848C58.2047 60.432 58.034 59.9573 58.002 59.424H59.506C59.5487 59.8613 59.7513 60.2187 60.114 60.496C60.4873 60.7733 60.9727 60.912 61.57 60.912C62.1247 60.912 62.562 60.7893 62.882 60.544C63.202 60.2987 63.362 59.9893 63.362 59.616C63.362 59.232 63.1913 58.9493 62.85 58.768C62.5087 58.576 61.9807 58.3893 61.266 58.208C60.6153 58.0373 60.082 57.8667 59.666 57.696C59.2607 57.5147 58.9087 57.2533 58.61 56.912C58.322 56.56 58.178 56.1013 58.178 55.536C58.178 55.088 58.3113 54.6773 58.578 54.304C58.8447 53.9307 59.2233 53.6373 59.714 53.424C60.2047 53.2 60.7647 53.088 61.394 53.088C62.3647 53.088 63.1487 53.3333 63.746 53.824C64.3433 54.3147 64.6633 54.9867 64.706 55.84H63.25C63.218 55.3813 63.0313 55.0133 62.69 54.736C62.3593 54.4587 61.9113 54.32 61.346 54.32C60.8233 54.32 60.4073 54.432 60.098 54.656C59.7887 54.88 59.634 55.1733 59.634 55.536C59.634 55.824 59.7247 56.064 59.906 56.256C60.098 56.4373 60.3327 56.5867 60.61 56.704C60.898 56.8107 61.2927 56.9333 61.794 57.072C62.4233 57.2427 62.9353 57.4133 63.33 57.584C63.7247 57.744 64.0607 57.9893 64.338 58.32C64.626 58.6507 64.7753 59.0827 64.786 59.616C64.786 60.096 64.6527 60.528 64.386 60.912C64.1193 61.296 63.7407 61.6 63.25 61.824C62.77 62.0373 62.2153 62.144 61.586 62.144ZM66.2974 57.6C66.2974 56.6933 66.4787 55.904 66.8414 55.232C67.204 54.5493 67.7054 54.0213 68.3454 53.648C68.996 53.2747 69.7374 53.088 70.5694 53.088C71.6467 53.088 72.532 53.3493 73.2254 53.872C73.9294 54.3947 74.3934 55.12 74.6174 56.048H73.0494C72.9 55.5147 72.6067 55.0933 72.1694 54.784C71.7427 54.4747 71.2094 54.32 70.5694 54.32C69.7374 54.32 69.0654 54.608 68.5534 55.184C68.0414 55.7493 67.7854 56.5547 67.7854 57.6C67.7854 58.656 68.0414 59.472 68.5534 60.048C69.0654 60.624 69.7374 60.912 70.5694 60.912C71.2094 60.912 71.7427 60.7627 72.1694 60.464C72.596 60.1653 72.8894 59.7387 73.0494 59.184H74.6174C74.3827 60.08 73.9134 60.8 73.2094 61.344C72.5054 61.8773 71.6254 62.144 70.5694 62.144C69.7374 62.144 68.996 61.9573 68.3454 61.584C67.7054 61.2107 67.204 60.6827 66.8414 60C66.4787 59.3173 66.2974 58.5173 66.2974 57.6ZM80.3841 62.144C79.5628 62.144 78.8161 61.9573 78.1441 61.584C77.4828 61.2107 76.9601 60.6827 76.5761 60C76.2028 59.3067 76.0161 58.5067 76.0161 57.6C76.0161 56.704 76.2081 55.9147 76.5921 55.232C76.9868 54.5387 77.5201 54.0107 78.1921 53.648C78.8641 53.2747 79.6161 53.088 80.4481 53.088C81.2801 53.088 82.0321 53.2747 82.7041 53.648C83.3761 54.0107 83.9041 54.5333 84.2881 55.216C84.6828 55.8987 84.8801 56.6933 84.8801 57.6C84.8801 58.5067 84.6775 59.3067 84.2721 60C83.8775 60.6827 83.3388 61.2107 82.6561 61.584C81.9735 61.9573 81.2161 62.144 80.3841 62.144ZM80.3841 60.864C80.9068 60.864 81.3975 60.7413 81.8561 60.496C82.3148 60.2507 82.6828 59.8827 82.9601 59.392C83.2481 58.9013 83.3921 58.304 83.3921 57.6C83.3921 56.896 83.2535 56.2987 82.9761 55.808C82.6988 55.3173 82.3361 54.9547 81.8881 54.72C81.4401 54.4747 80.9548 54.352 80.4321 54.352C79.8988 54.352 79.4081 54.4747 78.9601 54.72C78.5228 54.9547 78.1708 55.3173 77.9041 55.808C77.6375 56.2987 77.5041 56.896 77.5041 57.6C77.5041 58.3147 77.6321 58.9173 77.8881 59.408C78.1548 59.8987 78.5068 60.2667 78.9441 60.512C79.3815 60.7467 79.8615 60.864 80.3841 60.864ZM90.0585 60.656L92.7785 53.232H94.3305L90.8905 62H89.1945L85.7545 53.232H87.3225L90.0585 60.656ZM103.763 57.28C103.763 57.5573 103.747 57.8507 103.715 58.16H96.7073C96.7606 59.024 97.0539 59.7013 97.5873 60.192C98.1313 60.672 98.7873 60.912 99.5553 60.912C100.185 60.912 100.707 60.768 101.123 60.48C101.55 60.1813 101.849 59.7867 102.019 59.296H103.587C103.353 60.1387 102.883 60.8267 102.179 61.36C101.475 61.8827 100.601 62.144 99.5553 62.144C98.7233 62.144 97.9766 61.9573 97.3153 61.584C96.6646 61.2107 96.1526 60.6827 95.7793 60C95.4059 59.3067 95.2193 58.5067 95.2193 57.6C95.2193 56.6933 95.4006 55.8987 95.7633 55.216C96.1259 54.5333 96.6326 54.0107 97.2833 53.648C97.9446 53.2747 98.7019 53.088 99.5553 53.088C100.387 53.088 101.123 53.2693 101.763 53.632C102.403 53.9947 102.894 54.496 103.235 55.136C103.587 55.7653 103.763 56.48 103.763 57.28ZM102.259 56.976C102.259 56.4213 102.137 55.9467 101.891 55.552C101.646 55.1467 101.31 54.8427 100.883 54.64C100.467 54.4267 100.003 54.32 99.4913 54.32C98.7553 54.32 98.1259 54.5547 97.6033 55.024C97.0913 55.4933 96.7979 56.144 96.7233 56.976H102.259ZM107.141 54.656C107.397 54.1547 107.76 53.7653 108.229 53.488C108.709 53.2107 109.29 53.072 109.973 53.072V54.576H109.589C107.957 54.576 107.141 55.4613 107.141 57.232V62H105.685V53.232H107.141V54.656ZM119.206 53.232L113.926 66.128H112.422L114.15 61.904L110.614 53.232H112.23L114.982 60.336L117.702 53.232H119.206Z" fill="#2D3748"/>
<path d="M52.544 93.928V105H51.088V96.744L47.408 105H46.384L42.688 96.728V105H41.232V93.928H42.8L46.896 103.08L50.992 93.928H52.544ZM54.4693 100.584C54.4693 99.688 54.6506 98.904 55.0133 98.232C55.3759 97.5493 55.8719 97.0213 56.5013 96.648C57.1413 96.2747 57.8506 96.088 58.6293 96.088C59.3973 96.088 60.0639 96.2533 60.6293 96.584C61.1946 96.9147 61.6159 97.3307 61.8933 97.832V96.232H63.3653V105H61.8933V103.368C61.6053 103.88 61.1733 104.307 60.5973 104.648C60.0319 104.979 59.3706 105.144 58.6133 105.144C57.8346 105.144 57.1306 104.952 56.5013 104.568C55.8719 104.184 55.3759 103.645 55.0133 102.952C54.6506 102.259 54.4693 101.469 54.4693 100.584ZM61.8933 100.6C61.8933 99.9387 61.7599 99.3627 61.4933 98.872C61.2266 98.3813 60.8639 98.008 60.4053 97.752C59.9573 97.4853 59.4613 97.352 58.9173 97.352C58.3733 97.352 57.8773 97.48 57.4293 97.736C56.9813 97.992 56.6239 98.3653 56.3573 98.856C56.0906 99.3467 55.9573 99.9227 55.9573 100.584C55.9573 101.256 56.0906 101.843 56.3573 102.344C56.6239 102.835 56.9813 103.213 57.4293 103.48C57.8773 103.736 58.3733 103.864 58.9173 103.864C59.4613 103.864 59.9573 103.736 60.4053 103.48C60.8639 103.213 61.2266 102.835 61.4933 102.344C61.7599 101.843 61.8933 101.261 61.8933 100.6ZM67.2818 97.656C67.5378 97.1547 67.9004 96.7653 68.3698 96.488C68.8498 96.2107 69.4311 96.072 70.1138 96.072V97.576H69.7298C68.0978 97.576 67.2818 98.4613 67.2818 100.232V105H65.8258V96.232H67.2818V97.656ZM76.6905 105L73.2505 101.128V105H71.7945V93.16H73.2505V100.12L76.6265 96.232H78.6585L74.5305 100.6L78.6745 105H76.6905ZM88.0289 100.28C88.0289 100.557 88.0129 100.851 87.9809 101.16H80.9729C81.0262 102.024 81.3195 102.701 81.8529 103.192C82.3969 103.672 83.0529 103.912 83.8209 103.912C84.4502 103.912 84.9729 103.768 85.3889 103.48C85.8155 103.181 86.1142 102.787 86.2849 102.296H87.8529C87.6182 103.139 87.1489 103.827 86.4449 104.36C85.7409 104.883 84.8662 105.144 83.8209 105.144C82.9889 105.144 82.2422 104.957 81.5809 104.584C80.9302 104.211 80.4182 103.683 80.0449 103C79.6715 102.307 79.4849 101.507 79.4849 100.6C79.4849 99.6933 79.6662 98.8987 80.0289 98.216C80.3915 97.5333 80.8982 97.0107 81.5489 96.648C82.2102 96.2747 82.9675 96.088 83.8209 96.088C84.6529 96.088 85.3889 96.2693 86.0289 96.632C86.6689 96.9947 87.1595 97.496 87.5009 98.136C87.8529 98.7653 88.0289 99.48 88.0289 100.28ZM86.5249 99.976C86.5249 99.4213 86.4022 98.9467 86.1569 98.552C85.9115 98.1467 85.5755 97.8427 85.1489 97.64C84.7329 97.4267 84.2689 97.32 83.7569 97.32C83.0209 97.32 82.3915 97.5547 81.8689 98.024C81.3569 98.4933 81.0635 99.144 80.9889 99.976H86.5249ZM91.7268 97.432V102.6C91.7268 103.027 91.8174 103.331 91.9988 103.512C92.1801 103.683 92.4948 103.768 92.9427 103.768H94.0148V105H92.7028C91.8921 105 91.2841 104.813 90.8788 104.44C90.4734 104.067 90.2708 103.453 90.2708 102.6V97.432H89.1348V96.232H90.2708V94.024H91.7268V96.232H94.0148V97.432H91.7268ZM96.5309 94.808C96.2535 94.808 96.0189 94.712 95.8269 94.52C95.6349 94.328 95.5389 94.0933 95.5389 93.816C95.5389 93.5387 95.6349 93.304 95.8269 93.112C96.0189 92.92 96.2535 92.824 96.5309 92.824C96.7975 92.824 97.0215 92.92 97.2029 93.112C97.3949 93.304 97.4909 93.5387 97.4909 93.816C97.4909 94.0933 97.3949 94.328 97.2029 94.52C97.0215 94.712 96.7975 94.808 96.5309 94.808ZM97.2349 96.232V105H95.7789V96.232H97.2349ZM103.988 96.072C105.055 96.072 105.919 96.3973 106.58 97.048C107.242 97.688 107.572 98.616 107.572 99.832V105H106.132V100.04C106.132 99.1653 105.914 98.4987 105.476 98.04C105.039 97.5707 104.442 97.336 103.684 97.336C102.916 97.336 102.303 97.576 101.844 98.056C101.396 98.536 101.172 99.2347 101.172 100.152V105H99.7164V96.232H101.172V97.48C101.46 97.032 101.85 96.6853 102.34 96.44C102.842 96.1947 103.391 96.072 103.988 96.072ZM113.567 96.088C114.324 96.088 114.985 96.2533 115.551 96.584C116.127 96.9147 116.553 97.3307 116.831 97.832V96.232H118.303V105.192C118.303 105.992 118.132 106.701 117.791 107.32C117.449 107.949 116.959 108.44 116.319 108.792C115.689 109.144 114.953 109.32 114.111 109.32C112.959 109.32 111.999 109.048 111.231 108.504C110.463 107.96 110.009 107.219 109.871 106.28H111.311C111.471 106.813 111.801 107.24 112.303 107.56C112.804 107.891 113.407 108.056 114.111 108.056C114.911 108.056 115.561 107.805 116.063 107.304C116.575 106.803 116.831 106.099 116.831 105.192V103.352C116.543 103.864 116.116 104.291 115.551 104.632C114.985 104.973 114.324 105.144 113.567 105.144C112.788 105.144 112.079 104.952 111.439 104.568C110.809 104.184 110.313 103.645 109.951 102.952C109.588 102.259 109.407 101.469 109.407 100.584C109.407 99.688 109.588 98.904 109.951 98.232C110.313 97.5493 110.809 97.0213 111.439 96.648C112.079 96.2747 112.788 96.088 113.567 96.088ZM116.831 100.6C116.831 99.9387 116.697 99.3627 116.431 98.872C116.164 98.3813 115.801 98.008 115.343 97.752C114.895 97.4853 114.399 97.352 113.855 97.352C113.311 97.352 112.815 97.48 112.367 97.736C111.919 97.992 111.561 98.3653 111.295 98.856C111.028 99.3467 110.895 99.9227 110.895 100.584C110.895 101.256 111.028 101.843 111.295 102.344C111.561 102.835 111.919 103.213 112.367 103.48C112.815 103.736 113.311 103.864 113.855 103.864C114.399 103.864 114.895 103.736 115.343 103.48C115.801 103.213 116.164 102.835 116.431 102.344C116.697 101.843 116.831 101.261 116.831 100.6Z" fill="#2D3748"/>
<path d="M293.968 140.248V150.616C293.968 151.752 294.264 152.624 294.856 153.232C295.448 153.824 296.28 154.12 297.352 154.12C298.44 154.12 299.28 153.824 299.872 153.232C300.464 152.624 300.76 151.752 300.76 150.616V140.248H304.144V150.592C304.144 152.016 303.832 153.224 303.208 154.216C302.6 155.192 301.776 155.928 300.736 156.424C299.712 156.92 298.568 157.168 297.304 157.168C296.056 157.168 294.92 156.92 293.896 156.424C292.888 155.928 292.088 155.192 291.496 154.216C290.904 153.224 290.608 152.016 290.608 150.592V140.248H293.968ZM317.422 157L313.798 151.36L310.51 157H306.718L311.998 148.552L306.646 140.248H310.51L314.134 145.864L317.398 140.248H321.19L315.934 148.672L321.286 157H317.422Z" fill="#553C9A"/>
<path d="M254.104 193L251.448 188.44H249.688V193H248.232V181.848H251.832C252.675 181.848 253.384 181.992 253.96 182.28C254.547 182.568 254.984 182.957 255.272 183.448C255.56 183.939 255.704 184.499 255.704 185.128C255.704 185.896 255.48 186.573 255.032 187.16C254.595 187.747 253.933 188.136 253.048 188.328L255.848 193H254.104ZM249.688 187.272H251.832C252.621 187.272 253.213 187.08 253.608 186.696C254.003 186.301 254.2 185.779 254.2 185.128C254.2 184.467 254.003 183.955 253.608 183.592C253.224 183.229 252.632 183.048 251.832 183.048H249.688V187.272ZM265.966 188.28C265.966 188.557 265.95 188.851 265.918 189.16H258.91C258.964 190.024 259.257 190.701 259.79 191.192C260.334 191.672 260.99 191.912 261.758 191.912C262.388 191.912 262.91 191.768 263.326 191.48C263.753 191.181 264.052 190.787 264.222 190.296H265.79C265.556 191.139 265.086 191.827 264.382 192.36C263.678 192.883 262.804 193.144 261.758 193.144C260.926 193.144 260.18 192.957 259.518 192.584C258.868 192.211 258.356 191.683 257.982 191C257.609 190.307 257.422 189.507 257.422 188.6C257.422 187.693 257.604 186.899 257.966 186.216C258.329 185.533 258.836 185.011 259.486 184.648C260.148 184.275 260.905 184.088 261.758 184.088C262.59 184.088 263.326 184.269 263.966 184.632C264.606 184.995 265.097 185.496 265.438 186.136C265.79 186.765 265.966 187.48 265.966 188.28ZM264.462 187.976C264.462 187.421 264.34 186.947 264.094 186.552C263.849 186.147 263.513 185.843 263.086 185.64C262.67 185.427 262.206 185.32 261.694 185.32C260.958 185.32 260.329 185.555 259.806 186.024C259.294 186.493 259.001 187.144 258.926 187.976H264.462ZM270.992 193.144C270.32 193.144 269.718 193.032 269.184 192.808C268.651 192.573 268.23 192.253 267.92 191.848C267.611 191.432 267.44 190.957 267.408 190.424H268.912C268.955 190.861 269.158 191.219 269.52 191.496C269.894 191.773 270.379 191.912 270.976 191.912C271.531 191.912 271.968 191.789 272.288 191.544C272.608 191.299 272.768 190.989 272.768 190.616C272.768 190.232 272.598 189.949 272.256 189.768C271.915 189.576 271.387 189.389 270.672 189.208C270.022 189.037 269.488 188.867 269.072 188.696C268.667 188.515 268.315 188.253 268.016 187.912C267.728 187.56 267.584 187.101 267.584 186.536C267.584 186.088 267.718 185.677 267.984 185.304C268.251 184.931 268.63 184.637 269.12 184.424C269.611 184.2 270.171 184.088 270.8 184.088C271.771 184.088 272.555 184.333 273.152 184.824C273.75 185.315 274.07 185.987 274.112 186.84H272.656C272.624 186.381 272.438 186.013 272.096 185.736C271.766 185.459 271.318 185.32 270.752 185.32C270.23 185.32 269.814 185.432 269.504 185.656C269.195 185.88 269.04 186.173 269.04 186.536C269.04 186.824 269.131 187.064 269.312 187.256C269.504 187.437 269.739 187.587 270.016 187.704C270.304 187.811 270.699 187.933 271.2 188.072C271.83 188.243 272.342 188.413 272.736 188.584C273.131 188.744 273.467 188.989 273.744 189.32C274.032 189.651 274.182 190.083 274.192 190.616C274.192 191.096 274.059 191.528 273.792 191.912C273.526 192.296 273.147 192.6 272.656 192.824C272.176 193.037 271.622 193.144 270.992 193.144ZM284.248 188.28C284.248 188.557 284.232 188.851 284.2 189.16H277.192C277.245 190.024 277.538 190.701 278.072 191.192C278.616 191.672 279.272 191.912 280.04 191.912C280.669 191.912 281.192 191.768 281.608 191.48C282.034 191.181 282.333 190.787 282.504 190.296H284.072C283.837 191.139 283.368 191.827 282.664 192.36C281.96 192.883 281.085 193.144 280.04 193.144C279.208 193.144 278.461 192.957 277.8 192.584C277.149 192.211 276.637 191.683 276.264 191C275.89 190.307 275.704 189.507 275.704 188.6C275.704 187.693 275.885 186.899 276.248 186.216C276.61 185.533 277.117 185.011 277.768 184.648C278.429 184.275 279.186 184.088 280.04 184.088C280.872 184.088 281.608 184.269 282.248 184.632C282.888 184.995 283.378 185.496 283.72 186.136C284.072 186.765 284.248 187.48 284.248 188.28ZM282.744 187.976C282.744 187.421 282.621 186.947 282.376 186.552C282.13 186.147 281.794 185.843 281.368 185.64C280.952 185.427 280.488 185.32 279.976 185.32C279.24 185.32 278.61 185.555 278.088 186.024C277.576 186.493 277.282 187.144 277.208 187.976H282.744ZM285.626 188.584C285.626 187.688 285.807 186.904 286.17 186.232C286.532 185.549 287.028 185.021 287.658 184.648C288.298 184.275 289.007 184.088 289.786 184.088C290.554 184.088 291.22 184.253 291.786 184.584C292.351 184.915 292.772 185.331 293.05 185.832V184.232H294.522V193H293.05V191.368C292.762 191.88 292.33 192.307 291.754 192.648C291.188 192.979 290.527 193.144 289.77 193.144C288.991 193.144 288.287 192.952 287.658 192.568C287.028 192.184 286.532 191.645 286.17 190.952C285.807 190.259 285.626 189.469 285.626 188.584ZM293.05 188.6C293.05 187.939 292.916 187.363 292.65 186.872C292.383 186.381 292.02 186.008 291.562 185.752C291.114 185.485 290.618 185.352 290.074 185.352C289.53 185.352 289.034 185.48 288.586 185.736C288.138 185.992 287.78 186.365 287.514 186.856C287.247 187.347 287.114 187.923 287.114 188.584C287.114 189.256 287.247 189.843 287.514 190.344C287.78 190.835 288.138 191.213 288.586 191.48C289.034 191.736 289.53 191.864 290.074 191.864C290.618 191.864 291.114 191.736 291.562 191.48C292.02 191.213 292.383 190.835 292.65 190.344C292.916 189.843 293.05 189.261 293.05 188.6ZM298.438 185.656C298.694 185.155 299.057 184.765 299.526 184.488C300.006 184.211 300.587 184.072 301.27 184.072V185.576H300.886C299.254 185.576 298.438 186.461 298.438 188.232V193H296.982V184.232H298.438V185.656ZM302.407 188.6C302.407 187.693 302.588 186.904 302.951 186.232C303.313 185.549 303.815 185.021 304.455 184.648C305.105 184.275 305.847 184.088 306.679 184.088C307.756 184.088 308.641 184.349 309.335 184.872C310.039 185.395 310.503 186.12 310.727 187.048H309.159C309.009 186.515 308.716 186.093 308.279 185.784C307.852 185.475 307.319 185.32 306.679 185.32C305.847 185.32 305.175 185.608 304.663 186.184C304.151 186.749 303.895 187.555 303.895 188.6C303.895 189.656 304.151 190.472 304.663 191.048C305.175 191.624 305.847 191.912 306.679 191.912C307.319 191.912 307.852 191.763 308.279 191.464C308.705 191.165 308.999 190.739 309.159 190.184H310.727C310.492 191.08 310.023 191.8 309.319 192.344C308.615 192.877 307.735 193.144 306.679 193.144C305.847 193.144 305.105 192.957 304.455 192.584C303.815 192.211 303.313 191.683 302.951 191C302.588 190.317 302.407 189.517 302.407 188.6ZM317.022 184.072C317.683 184.072 318.28 184.216 318.814 184.504C319.347 184.781 319.763 185.203 320.062 185.768C320.371 186.333 320.526 187.021 320.526 187.832V193H319.086V188.04C319.086 187.165 318.867 186.499 318.43 186.04C317.992 185.571 317.395 185.336 316.638 185.336C315.87 185.336 315.256 185.576 314.798 186.056C314.35 186.536 314.126 187.235 314.126 188.152V193H312.67V181.16H314.126V185.48C314.414 185.032 314.808 184.685 315.31 184.44C315.822 184.195 316.392 184.072 317.022 184.072Z" fill="#2D3748"/>
<path d="M178.688 225.848V237H177.232V225.848H178.688ZM185.442 228.072C186.508 228.072 187.372 228.397 188.034 229.048C188.695 229.688 189.026 230.616 189.026 231.832V237H187.586V232.04C187.586 231.165 187.367 230.499 186.93 230.04C186.492 229.571 185.895 229.336 185.138 229.336C184.37 229.336 183.756 229.576 183.298 230.056C182.85 230.536 182.626 231.235 182.626 232.152V237H181.17V228.232H182.626V229.48C182.914 229.032 183.303 228.685 183.794 228.44C184.295 228.195 184.844 228.072 185.442 228.072ZM193.18 229.432V234.6C193.18 235.027 193.271 235.331 193.452 235.512C193.633 235.683 193.948 235.768 194.396 235.768H195.468V237H194.156C193.345 237 192.737 236.813 192.332 236.44C191.927 236.067 191.724 235.453 191.724 234.6V229.432H190.588V228.232H191.724V226.024H193.18V228.232H195.468V229.432H193.18ZM205.232 232.28C205.232 232.557 205.216 232.851 205.184 233.16H198.176C198.229 234.024 198.523 234.701 199.056 235.192C199.6 235.672 200.256 235.912 201.024 235.912C201.653 235.912 202.176 235.768 202.592 235.48C203.019 235.181 203.317 234.787 203.488 234.296H205.056C204.821 235.139 204.352 235.827 203.648 236.36C202.944 236.883 202.069 237.144 201.024 237.144C200.192 237.144 199.445 236.957 198.784 236.584C198.133 236.211 197.621 235.683 197.248 235C196.875 234.307 196.688 233.507 196.688 232.6C196.688 231.693 196.869 230.899 197.232 230.216C197.595 229.533 198.101 229.011 198.752 228.648C199.413 228.275 200.171 228.088 201.024 228.088C201.856 228.088 202.592 228.269 203.232 228.632C203.872 228.995 204.363 229.496 204.704 230.136C205.056 230.765 205.232 231.48 205.232 232.28ZM203.728 231.976C203.728 231.421 203.605 230.947 203.36 230.552C203.115 230.147 202.779 229.843 202.352 229.64C201.936 229.427 201.472 229.32 200.96 229.32C200.224 229.32 199.595 229.555 199.072 230.024C198.56 230.493 198.267 231.144 198.192 231.976H203.728ZM208.61 229.656C208.866 229.155 209.229 228.765 209.698 228.488C210.178 228.211 210.759 228.072 211.442 228.072V229.576H211.058C209.426 229.576 208.61 230.461 208.61 232.232V237H207.154V228.232H208.61V229.656ZM212.579 232.584C212.579 231.688 212.76 230.904 213.123 230.232C213.485 229.549 213.981 229.021 214.611 228.648C215.251 228.275 215.96 228.088 216.739 228.088C217.507 228.088 218.173 228.253 218.739 228.584C219.304 228.915 219.725 229.331 220.003 229.832V228.232H221.475V237H220.003V235.368C219.715 235.88 219.283 236.307 218.707 236.648C218.141 236.979 217.48 237.144 216.723 237.144C215.944 237.144 215.24 236.952 214.611 236.568C213.981 236.184 213.485 235.645 213.123 234.952C212.76 234.259 212.579 233.469 212.579 232.584ZM220.003 232.6C220.003 231.939 219.869 231.363 219.603 230.872C219.336 230.381 218.973 230.008 218.515 229.752C218.067 229.485 217.571 229.352 217.027 229.352C216.483 229.352 215.987 229.48 215.539 229.736C215.091 229.992 214.733 230.365 214.467 230.856C214.2 231.347 214.067 231.923 214.067 232.584C214.067 233.256 214.2 233.843 214.467 234.344C214.733 234.835 215.091 235.213 215.539 235.48C215.987 235.736 216.483 235.864 217.027 235.864C217.571 235.864 218.067 235.736 218.515 235.48C218.973 235.213 219.336 234.835 219.603 234.344C219.869 233.843 220.003 233.261 220.003 232.6ZM223.391 232.6C223.391 231.693 223.572 230.904 223.935 230.232C224.298 229.549 224.799 229.021 225.439 228.648C226.09 228.275 226.831 228.088 227.663 228.088C228.74 228.088 229.626 228.349 230.319 228.872C231.023 229.395 231.487 230.12 231.711 231.048H230.143C229.994 230.515 229.7 230.093 229.263 229.784C228.836 229.475 228.303 229.32 227.663 229.32C226.831 229.32 226.159 229.608 225.647 230.184C225.135 230.749 224.879 231.555 224.879 232.6C224.879 233.656 225.135 234.472 225.647 235.048C226.159 235.624 226.831 235.912 227.663 235.912C228.303 235.912 228.836 235.763 229.263 235.464C229.69 235.165 229.983 234.739 230.143 234.184H231.711C231.476 235.08 231.007 235.8 230.303 236.344C229.599 236.877 228.719 237.144 227.663 237.144C226.831 237.144 226.09 236.957 225.439 236.584C224.799 236.211 224.298 235.683 223.935 235C223.572 234.317 223.391 233.517 223.391 232.6ZM235.43 229.432V234.6C235.43 235.027 235.521 235.331 235.702 235.512C235.883 235.683 236.198 235.768 236.646 235.768H237.718V237H236.406C235.595 237 234.987 236.813 234.582 236.44C234.177 236.067 233.974 235.453 233.974 234.6V229.432H232.838V228.232H233.974V226.024H235.43V228.232H237.718V229.432H235.43ZM240.234 226.808C239.957 226.808 239.722 226.712 239.53 226.52C239.338 226.328 239.242 226.093 239.242 225.816C239.242 225.539 239.338 225.304 239.53 225.112C239.722 224.92 239.957 224.824 240.234 224.824C240.501 224.824 240.725 224.92 240.906 225.112C241.098 225.304 241.194 225.539 241.194 225.816C241.194 226.093 241.098 226.328 240.906 226.52C240.725 226.712 240.501 226.808 240.234 226.808ZM240.938 228.232V237H239.482V228.232H240.938ZM247.244 237.144C246.422 237.144 245.676 236.957 245.004 236.584C244.342 236.211 243.82 235.683 243.436 235C243.062 234.307 242.876 233.507 242.876 232.6C242.876 231.704 243.068 230.915 243.452 230.232C243.846 229.539 244.38 229.011 245.052 228.648C245.724 228.275 246.476 228.088 247.308 228.088C248.14 228.088 248.892 228.275 249.564 228.648C250.236 229.011 250.764 229.533 251.148 230.216C251.542 230.899 251.74 231.693 251.74 232.6C251.74 233.507 251.537 234.307 251.132 235C250.737 235.683 250.198 236.211 249.516 236.584C248.833 236.957 248.076 237.144 247.244 237.144ZM247.244 235.864C247.766 235.864 248.257 235.741 248.716 235.496C249.174 235.251 249.542 234.883 249.82 234.392C250.108 233.901 250.252 233.304 250.252 232.6C250.252 231.896 250.113 231.299 249.836 230.808C249.558 230.317 249.196 229.955 248.748 229.72C248.3 229.475 247.814 229.352 247.292 229.352C246.758 229.352 246.268 229.475 245.82 229.72C245.382 229.955 245.03 230.317 244.764 230.808C244.497 231.299 244.364 231.896 244.364 232.6C244.364 233.315 244.492 233.917 244.748 234.408C245.014 234.899 245.366 235.267 245.804 235.512C246.241 235.747 246.721 235.864 247.244 235.864ZM257.926 228.072C258.993 228.072 259.857 228.397 260.518 229.048C261.179 229.688 261.51 230.616 261.51 231.832V237H260.07V232.04C260.07 231.165 259.851 230.499 259.414 230.04C258.977 229.571 258.379 229.336 257.622 229.336C256.854 229.336 256.241 229.576 255.782 230.056C255.334 230.536 255.11 231.235 255.11 232.152V237H253.654V228.232H255.11V229.48C255.398 229.032 255.787 228.685 256.278 228.44C256.779 228.195 257.329 228.072 257.926 228.072ZM271.626 225.848C272.842 225.848 273.893 226.077 274.778 226.536C275.674 226.984 276.357 227.629 276.826 228.472C277.306 229.315 277.546 230.307 277.546 231.448C277.546 232.589 277.306 233.581 276.826 234.424C276.357 235.256 275.674 235.896 274.778 236.344C273.893 236.781 272.842 237 271.626 237H268.154V225.848H271.626ZM271.626 235.8C273.066 235.8 274.165 235.421 274.922 234.664C275.679 233.896 276.058 232.824 276.058 231.448C276.058 230.061 275.674 228.979 274.906 228.2C274.149 227.421 273.055 227.032 271.626 227.032H269.61V235.8H271.626ZM287.466 232.28C287.466 232.557 287.45 232.851 287.418 233.16H280.41C280.464 234.024 280.757 234.701 281.29 235.192C281.834 235.672 282.49 235.912 283.258 235.912C283.888 235.912 284.41 235.768 284.826 235.48C285.253 235.181 285.552 234.787 285.722 234.296H287.29C287.056 235.139 286.586 235.827 285.882 236.36C285.178 236.883 284.304 237.144 283.258 237.144C282.426 237.144 281.68 236.957 281.018 236.584C280.368 236.211 279.856 235.683 279.482 235C279.109 234.307 278.922 233.507 278.922 232.6C278.922 231.693 279.104 230.899 279.466 230.216C279.829 229.533 280.336 229.011 280.986 228.648C281.648 228.275 282.405 228.088 283.258 228.088C284.09 228.088 284.826 228.269 285.466 228.632C286.106 228.995 286.597 229.496 286.938 230.136C287.29 230.765 287.466 231.48 287.466 232.28ZM285.962 231.976C285.962 231.421 285.84 230.947 285.594 230.552C285.349 230.147 285.013 229.843 284.586 229.64C284.17 229.427 283.706 229.32 283.194 229.32C282.458 229.32 281.829 229.555 281.306 230.024C280.794 230.493 280.501 231.144 280.426 231.976H285.962ZM292.492 237.144C291.82 237.144 291.218 237.032 290.684 236.808C290.151 236.573 289.73 236.253 289.42 235.848C289.111 235.432 288.94 234.957 288.908 234.424H290.412C290.455 234.861 290.658 235.219 291.02 235.496C291.394 235.773 291.879 235.912 292.476 235.912C293.031 235.912 293.468 235.789 293.788 235.544C294.108 235.299 294.268 234.989 294.268 234.616C294.268 234.232 294.098 233.949 293.756 233.768C293.415 233.576 292.887 233.389 292.172 233.208C291.522 233.037 290.988 232.867 290.572 232.696C290.167 232.515 289.815 232.253 289.516 231.912C289.228 231.56 289.084 231.101 289.084 230.536C289.084 230.088 289.218 229.677 289.484 229.304C289.751 228.931 290.13 228.637 290.62 228.424C291.111 228.2 291.671 228.088 292.3 228.088C293.271 228.088 294.055 228.333 294.652 228.824C295.25 229.315 295.57 229.987 295.612 230.84H294.156C294.124 230.381 293.938 230.013 293.596 229.736C293.266 229.459 292.818 229.32 292.252 229.32C291.73 229.32 291.314 229.432 291.004 229.656C290.695 229.88 290.54 230.173 290.54 230.536C290.54 230.824 290.631 231.064 290.812 231.256C291.004 231.437 291.239 231.587 291.516 231.704C291.804 231.811 292.199 231.933 292.7 232.072C293.33 232.243 293.842 232.413 294.236 232.584C294.631 232.744 294.967 232.989 295.244 233.32C295.532 233.651 295.682 234.083 295.692 234.616C295.692 235.096 295.559 235.528 295.292 235.912C295.026 236.296 294.647 236.6 294.156 236.824C293.676 237.037 293.122 237.144 292.492 237.144ZM298.5 226.808C298.222 226.808 297.988 226.712 297.796 226.52C297.604 226.328 297.508 226.093 297.508 225.816C297.508 225.539 297.604 225.304 297.796 225.112C297.988 224.92 298.222 224.824 298.5 224.824C298.766 224.824 298.99 224.92 299.172 225.112C299.364 225.304 299.46 225.539 299.46 225.816C299.46 226.093 299.364 226.328 299.172 226.52C298.99 226.712 298.766 226.808 298.5 226.808ZM299.204 228.232V237H297.748V228.232H299.204ZM305.301 228.088C306.058 228.088 306.72 228.253 307.285 228.584C307.861 228.915 308.288 229.331 308.565 229.832V228.232H310.037V237.192C310.037 237.992 309.866 238.701 309.525 239.32C309.184 239.949 308.693 240.44 308.053 240.792C307.424 241.144 306.688 241.32 305.845 241.32C304.693 241.32 303.733 241.048 302.965 240.504C302.197 239.96 301.744 239.219 301.605 238.28H303.045C303.205 238.813 303.536 239.24 304.037 239.56C304.538 239.891 305.141 240.056 305.845 240.056C306.645 240.056 307.296 239.805 307.797 239.304C308.309 238.803 308.565 238.099 308.565 237.192V235.352C308.277 235.864 307.85 236.291 307.285 236.632C306.72 236.973 306.058 237.144 305.301 237.144C304.522 237.144 303.813 236.952 303.173 236.568C302.544 236.184 302.048 235.645 301.685 234.952C301.322 234.259 301.141 233.469 301.141 232.584C301.141 231.688 301.322 230.904 301.685 230.232C302.048 229.549 302.544 229.021 303.173 228.648C303.813 228.275 304.522 228.088 305.301 228.088ZM308.565 232.6C308.565 231.939 308.432 231.363 308.165 230.872C307.898 230.381 307.536 230.008 307.077 229.752C306.629 229.485 306.133 229.352 305.589 229.352C305.045 229.352 304.549 229.48 304.101 229.736C303.653 229.992 303.296 230.365 303.029 230.856C302.762 231.347 302.629 231.923 302.629 232.584C302.629 233.256 302.762 233.843 303.029 234.344C303.296 234.835 303.653 235.213 304.101 235.48C304.549 235.736 305.045 235.864 305.589 235.864C306.133 235.864 306.629 235.736 307.077 235.48C307.536 235.213 307.898 234.835 308.165 234.344C308.432 233.843 308.565 233.261 308.565 232.6ZM316.77 228.072C317.836 228.072 318.7 228.397 319.362 229.048C320.023 229.688 320.354 230.616 320.354 231.832V237H318.914V232.04C318.914 231.165 318.695 230.499 318.258 230.04C317.82 229.571 317.223 229.336 316.466 229.336C315.698 229.336 315.084 229.576 314.626 230.056C314.178 230.536 313.954 231.235 313.954 232.152V237H312.498V228.232H313.954V229.48C314.242 229.032 314.631 228.685 315.122 228.44C315.623 228.195 316.172 228.072 316.77 228.072Z" fill="#2D3748"/>
<path d="M237.688 273.112C237.688 274.04 237.368 274.813 236.728 275.432C236.099 276.04 235.133 276.344 233.832 276.344H231.688V281H230.232V269.848H233.832C235.091 269.848 236.045 270.152 236.696 270.76C237.357 271.368 237.688 272.152 237.688 273.112ZM233.832 275.144C234.643 275.144 235.24 274.968 235.624 274.616C236.008 274.264 236.2 273.763 236.2 273.112C236.2 271.736 235.411 271.048 233.832 271.048H231.688V275.144H233.832ZM240.954 273.656C241.21 273.155 241.572 272.765 242.042 272.488C242.522 272.211 243.103 272.072 243.786 272.072V273.576H243.402C241.77 273.576 240.954 274.461 240.954 276.232V281H239.498V272.232H240.954V273.656ZM249.29 281.144C248.469 281.144 247.722 280.957 247.05 280.584C246.389 280.211 245.866 279.683 245.482 279C245.109 278.307 244.922 277.507 244.922 276.6C244.922 275.704 245.114 274.915 245.498 274.232C245.893 273.539 246.426 273.011 247.098 272.648C247.77 272.275 248.522 272.088 249.354 272.088C250.186 272.088 250.938 272.275 251.61 272.648C252.282 273.011 252.81 273.533 253.194 274.216C253.589 274.899 253.786 275.693 253.786 276.6C253.786 277.507 253.584 278.307 253.178 279C252.784 279.683 252.245 280.211 251.562 280.584C250.88 280.957 250.122 281.144 249.29 281.144ZM249.29 279.864C249.813 279.864 250.304 279.741 250.762 279.496C251.221 279.251 251.589 278.883 251.866 278.392C252.154 277.901 252.298 277.304 252.298 276.6C252.298 275.896 252.16 275.299 251.882 274.808C251.605 274.317 251.242 273.955 250.794 273.72C250.346 273.475 249.861 273.352 249.338 273.352C248.805 273.352 248.314 273.475 247.866 273.72C247.429 273.955 247.077 274.317 246.81 274.808C246.544 275.299 246.41 275.896 246.41 276.6C246.41 277.315 246.538 277.917 246.794 278.408C247.061 278.899 247.413 279.267 247.85 279.512C248.288 279.747 248.768 279.864 249.29 279.864ZM257.477 273.432V278.6C257.477 279.027 257.567 279.331 257.749 279.512C257.93 279.683 258.245 279.768 258.693 279.768H259.765V281H258.453C257.642 281 257.034 280.813 256.629 280.44C256.223 280.067 256.021 279.453 256.021 278.6V273.432H254.885V272.232H256.021V270.024H257.477V272.232H259.765V273.432H257.477ZM265.353 281.144C264.532 281.144 263.785 280.957 263.113 280.584C262.452 280.211 261.929 279.683 261.545 279C261.172 278.307 260.985 277.507 260.985 276.6C260.985 275.704 261.177 274.915 261.561 274.232C261.956 273.539 262.489 273.011 263.161 272.648C263.833 272.275 264.585 272.088 265.417 272.088C266.249 272.088 267.001 272.275 267.673 272.648C268.345 273.011 268.873 273.533 269.257 274.216C269.652 274.899 269.849 275.693 269.849 276.6C269.849 277.507 269.646 278.307 269.241 279C268.846 279.683 268.308 280.211 267.625 280.584C266.942 280.957 266.185 281.144 265.353 281.144ZM265.353 279.864C265.876 279.864 266.366 279.741 266.825 279.496C267.284 279.251 267.652 278.883 267.929 278.392C268.217 277.901 268.361 277.304 268.361 276.6C268.361 275.896 268.222 275.299 267.945 274.808C267.668 274.317 267.305 273.955 266.857 273.72C266.409 273.475 265.924 273.352 265.401 273.352C264.868 273.352 264.377 273.475 263.929 273.72C263.492 273.955 263.14 274.317 262.873 274.808C262.606 275.299 262.473 275.896 262.473 276.6C262.473 277.315 262.601 277.917 262.857 278.408C263.124 278.899 263.476 279.267 263.913 279.512C264.35 279.747 264.83 279.864 265.353 279.864ZM273.539 273.432V278.6C273.539 279.027 273.63 279.331 273.811 279.512C273.993 279.683 274.307 279.768 274.755 279.768H275.827V281H274.515C273.705 281 273.097 280.813 272.691 280.44C272.286 280.067 272.083 279.453 272.083 278.6V273.432H270.947V272.232H272.083V270.024H273.539V272.232H275.827V273.432H273.539ZM285.143 272.232L279.863 285.128H278.359L280.087 280.904L276.551 272.232H278.167L280.919 279.336L283.639 272.232H285.143ZM288.063 273.848C288.351 273.347 288.778 272.931 289.343 272.6C289.919 272.259 290.586 272.088 291.343 272.088C292.122 272.088 292.826 272.275 293.455 272.648C294.095 273.021 294.596 273.549 294.959 274.232C295.322 274.904 295.503 275.688 295.503 276.584C295.503 277.469 295.322 278.259 294.959 278.952C294.596 279.645 294.095 280.184 293.455 280.568C292.826 280.952 292.122 281.144 291.343 281.144C290.596 281.144 289.935 280.979 289.359 280.648C288.794 280.307 288.362 279.885 288.063 279.384V285.16H286.607V272.232H288.063V273.848ZM294.015 276.584C294.015 275.923 293.882 275.347 293.615 274.856C293.348 274.365 292.986 273.992 292.527 273.736C292.079 273.48 291.583 273.352 291.039 273.352C290.506 273.352 290.01 273.485 289.551 273.752C289.103 274.008 288.74 274.387 288.463 274.888C288.196 275.379 288.063 275.949 288.063 276.6C288.063 277.261 288.196 277.843 288.463 278.344C288.74 278.835 289.103 279.213 289.551 279.48C290.01 279.736 290.506 279.864 291.039 279.864C291.583 279.864 292.079 279.736 292.527 279.48C292.986 279.213 293.348 278.835 293.615 278.344C293.882 277.843 294.015 277.256 294.015 276.584ZM298.172 270.808C297.894 270.808 297.66 270.712 297.468 270.52C297.276 270.328 297.18 270.093 297.18 269.816C297.18 269.539 297.276 269.304 297.468 269.112C297.66 268.92 297.894 268.824 298.172 268.824C298.438 268.824 298.662 268.92 298.844 269.112C299.036 269.304 299.132 269.539 299.132 269.816C299.132 270.093 299.036 270.328 298.844 270.52C298.662 270.712 298.438 270.808 298.172 270.808ZM298.876 272.232V281H297.42V272.232H298.876ZM305.629 272.072C306.696 272.072 307.56 272.397 308.221 273.048C308.882 273.688 309.213 274.616 309.213 275.832V281H307.773V276.04C307.773 275.165 307.554 274.499 307.117 274.04C306.68 273.571 306.082 273.336 305.325 273.336C304.557 273.336 303.944 273.576 303.485 274.056C303.037 274.536 302.813 275.235 302.813 276.152V281H301.357V272.232H302.813V273.48C303.101 273.032 303.49 272.685 303.981 272.44C304.482 272.195 305.032 272.072 305.629 272.072ZM315.207 272.088C315.965 272.088 316.626 272.253 317.191 272.584C317.767 272.915 318.194 273.331 318.471 273.832V272.232H319.943V281.192C319.943 281.992 319.773 282.701 319.431 283.32C319.09 283.949 318.599 284.44 317.959 284.792C317.33 285.144 316.594 285.32 315.751 285.32C314.599 285.32 313.639 285.048 312.871 284.504C312.103 283.96 311.65 283.219 311.511 282.28H312.951C313.111 282.813 313.442 283.24 313.943 283.56C314.445 283.891 315.047 284.056 315.751 284.056C316.551 284.056 317.202 283.805 317.703 283.304C318.215 282.803 318.471 282.099 318.471 281.192V279.352C318.183 279.864 317.757 280.291 317.191 280.632C316.626 280.973 315.965 281.144 315.207 281.144C314.429 281.144 313.719 280.952 313.079 280.568C312.45 280.184 311.954 279.645 311.591 278.952C311.229 278.259 311.047 277.469 311.047 276.584C311.047 275.688 311.229 274.904 311.591 274.232C311.954 273.549 312.45 273.021 313.079 272.648C313.719 272.275 314.429 272.088 315.207 272.088ZM318.471 276.6C318.471 275.939 318.338 275.363 318.071 274.872C317.805 274.381 317.442 274.008 316.983 273.752C316.535 273.485 316.039 273.352 315.495 273.352C314.951 273.352 314.455 273.48 314.007 273.736C313.559 273.992 313.202 274.365 312.935 274.856C312.669 275.347 312.535 275.923 312.535 276.584C312.535 277.256 312.669 277.843 312.935 278.344C313.202 278.835 313.559 279.213 314.007 279.48C314.455 279.736 314.951 279.864 315.495 279.864C316.039 279.864 316.535 279.736 316.983 279.48C317.442 279.213 317.805 278.835 318.071 278.344C318.338 277.843 318.471 277.261 318.471 276.6Z" fill="#2D3748"/>
<path d="M165.704 357.848C166.92 357.848 167.971 358.077 168.856 358.536C169.752 358.984 170.435 359.629 170.904 360.472C171.384 361.315 171.624 362.307 171.624 363.448C171.624 364.589 171.384 365.581 170.904 366.424C170.435 367.256 169.752 367.896 168.856 368.344C167.971 368.781 166.92 369 165.704 369H162.232V357.848H165.704ZM165.704 367.8C167.144 367.8 168.243 367.421 169 366.664C169.757 365.896 170.136 364.824 170.136 363.448C170.136 362.061 169.752 360.979 168.984 360.2C168.227 359.421 167.133 359.032 165.704 359.032H163.688V367.8H165.704ZM181.545 364.28C181.545 364.557 181.529 364.851 181.497 365.16H174.489C174.542 366.024 174.835 366.701 175.369 367.192C175.913 367.672 176.569 367.912 177.337 367.912C177.966 367.912 178.489 367.768 178.905 367.48C179.331 367.181 179.63 366.787 179.801 366.296H181.369C181.134 367.139 180.665 367.827 179.961 368.36C179.257 368.883 178.382 369.144 177.337 369.144C176.505 369.144 175.758 368.957 175.097 368.584C174.446 368.211 173.934 367.683 173.561 367C173.187 366.307 173.001 365.507 173.001 364.6C173.001 363.693 173.182 362.899 173.545 362.216C173.907 361.533 174.414 361.011 175.065 360.648C175.726 360.275 176.483 360.088 177.337 360.088C178.169 360.088 178.905 360.269 179.545 360.632C180.185 360.995 180.675 361.496 181.017 362.136C181.369 362.765 181.545 363.48 181.545 364.28ZM180.041 363.976C180.041 363.421 179.918 362.947 179.673 362.552C179.427 362.147 179.091 361.843 178.665 361.64C178.249 361.427 177.785 361.32 177.273 361.32C176.537 361.32 175.907 361.555 175.385 362.024C174.873 362.493 174.579 363.144 174.505 363.976H180.041ZM186.73 367.656L189.45 360.232H191.002L187.562 369H185.866L182.426 360.232H183.994L186.73 367.656ZM200.435 364.28C200.435 364.557 200.419 364.851 200.387 365.16H193.379C193.432 366.024 193.726 366.701 194.259 367.192C194.803 367.672 195.459 367.912 196.227 367.912C196.856 367.912 197.379 367.768 197.795 367.48C198.222 367.181 198.52 366.787 198.691 366.296H200.259C200.024 367.139 199.555 367.827 198.851 368.36C198.147 368.883 197.272 369.144 196.227 369.144C195.395 369.144 194.648 368.957 193.987 368.584C193.336 368.211 192.824 367.683 192.451 367C192.078 366.307 191.891 365.507 191.891 364.6C191.891 363.693 192.072 362.899 192.435 362.216C192.798 361.533 193.304 361.011 193.955 360.648C194.616 360.275 195.374 360.088 196.227 360.088C197.059 360.088 197.795 360.269 198.435 360.632C199.075 360.995 199.566 361.496 199.907 362.136C200.259 362.765 200.435 363.48 200.435 364.28ZM198.931 363.976C198.931 363.421 198.808 362.947 198.563 362.552C198.318 362.147 197.982 361.843 197.555 361.64C197.139 361.427 196.675 361.32 196.163 361.32C195.427 361.32 194.798 361.555 194.275 362.024C193.763 362.493 193.47 363.144 193.395 363.976H198.931ZM203.813 357.16V369H202.357V357.16H203.813ZM210.119 369.144C209.297 369.144 208.551 368.957 207.879 368.584C207.217 368.211 206.695 367.683 206.311 367C205.937 366.307 205.751 365.507 205.751 364.6C205.751 363.704 205.943 362.915 206.327 362.232C206.721 361.539 207.255 361.011 207.927 360.648C208.599 360.275 209.351 360.088 210.183 360.088C211.015 360.088 211.767 360.275 212.439 360.648C213.111 361.011 213.639 361.533 214.023 362.216C214.417 362.899 214.615 363.693 214.615 364.6C214.615 365.507 214.412 366.307 214.007 367C213.612 367.683 213.073 368.211 212.391 368.584C211.708 368.957 210.951 369.144 210.119 369.144ZM210.119 367.864C210.641 367.864 211.132 367.741 211.591 367.496C212.049 367.251 212.417 366.883 212.695 366.392C212.983 365.901 213.127 365.304 213.127 364.6C213.127 363.896 212.988 363.299 212.711 362.808C212.433 362.317 212.071 361.955 211.623 361.72C211.175 361.475 210.689 361.352 210.167 361.352C209.633 361.352 209.143 361.475 208.695 361.72C208.257 361.955 207.905 362.317 207.639 362.808C207.372 363.299 207.239 363.896 207.239 364.6C207.239 365.315 207.367 365.917 207.623 366.408C207.889 366.899 208.241 367.267 208.679 367.512C209.116 367.747 209.596 367.864 210.119 367.864ZM217.985 361.848C218.273 361.347 218.7 360.931 219.265 360.6C219.841 360.259 220.508 360.088 221.265 360.088C222.044 360.088 222.748 360.275 223.377 360.648C224.017 361.021 224.518 361.549 224.881 362.232C225.244 362.904 225.425 363.688 225.425 364.584C225.425 365.469 225.244 366.259 224.881 366.952C224.518 367.645 224.017 368.184 223.377 368.568C222.748 368.952 222.044 369.144 221.265 369.144C220.518 369.144 219.857 368.979 219.281 368.648C218.716 368.307 218.284 367.885 217.985 367.384V373.16H216.529V360.232H217.985V361.848ZM223.937 364.584C223.937 363.923 223.804 363.347 223.537 362.856C223.27 362.365 222.908 361.992 222.449 361.736C222.001 361.48 221.505 361.352 220.961 361.352C220.428 361.352 219.932 361.485 219.473 361.752C219.025 362.008 218.662 362.387 218.385 362.888C218.118 363.379 217.985 363.949 217.985 364.6C217.985 365.261 218.118 365.843 218.385 366.344C218.662 366.835 219.025 367.213 219.473 367.48C219.932 367.736 220.428 367.864 220.961 367.864C221.505 367.864 222.001 367.736 222.449 367.48C222.908 367.213 223.27 366.835 223.537 366.344C223.804 365.843 223.937 365.256 223.937 364.584ZM235.341 364.28C235.341 364.557 235.325 364.851 235.293 365.16H228.285C228.339 366.024 228.632 366.701 229.165 367.192C229.709 367.672 230.365 367.912 231.133 367.912C231.763 367.912 232.285 367.768 232.701 367.48C233.128 367.181 233.427 366.787 233.597 366.296H235.165C234.931 367.139 234.461 367.827 233.757 368.36C233.053 368.883 232.179 369.144 231.133 369.144C230.301 369.144 229.555 368.957 228.893 368.584C228.243 368.211 227.731 367.683 227.357 367C226.984 366.307 226.797 365.507 226.797 364.6C226.797 363.693 226.979 362.899 227.341 362.216C227.704 361.533 228.211 361.011 228.861 360.648C229.523 360.275 230.28 360.088 231.133 360.088C231.965 360.088 232.701 360.269 233.341 360.632C233.981 360.995 234.472 361.496 234.813 362.136C235.165 362.765 235.341 363.48 235.341 364.28ZM233.837 363.976C233.837 363.421 233.715 362.947 233.469 362.552C233.224 362.147 232.888 361.843 232.461 361.64C232.045 361.427 231.581 361.32 231.069 361.32C230.333 361.32 229.704 361.555 229.181 362.024C228.669 362.493 228.376 363.144 228.301 363.976H233.837ZM238.719 361.656C238.975 361.155 239.338 360.765 239.807 360.488C240.287 360.211 240.869 360.072 241.551 360.072V361.576H241.167C239.535 361.576 238.719 362.461 238.719 364.232V369H237.263V360.232H238.719V361.656ZM256.09 357.848V369H254.634V363.944H248.954V369H247.498V357.848H248.954V362.744H254.634V357.848H256.09ZM258.032 364.584C258.032 363.688 258.213 362.904 258.576 362.232C258.938 361.549 259.434 361.021 260.064 360.648C260.704 360.275 261.413 360.088 262.192 360.088C262.96 360.088 263.626 360.253 264.192 360.584C264.757 360.915 265.178 361.331 265.456 361.832V360.232H266.928V369H265.456V367.368C265.168 367.88 264.736 368.307 264.16 368.648C263.594 368.979 262.933 369.144 262.176 369.144C261.397 369.144 260.693 368.952 260.064 368.568C259.434 368.184 258.938 367.645 258.576 366.952C258.213 366.259 258.032 365.469 258.032 364.584ZM265.456 364.6C265.456 363.939 265.322 363.363 265.056 362.872C264.789 362.381 264.426 362.008 263.968 361.752C263.52 361.485 263.024 361.352 262.48 361.352C261.936 361.352 261.44 361.48 260.992 361.736C260.544 361.992 260.186 362.365 259.92 362.856C259.653 363.347 259.52 363.923 259.52 364.584C259.52 365.256 259.653 365.843 259.92 366.344C260.186 366.835 260.544 367.213 260.992 367.48C261.44 367.736 261.936 367.864 262.48 367.864C263.024 367.864 263.52 367.736 263.968 367.48C264.426 367.213 264.789 366.835 265.056 366.344C265.322 365.843 265.456 365.261 265.456 364.6ZM273.66 360.072C274.727 360.072 275.591 360.397 276.252 361.048C276.914 361.688 277.244 362.616 277.244 363.832V369H275.804V364.04C275.804 363.165 275.586 362.499 275.148 362.04C274.711 361.571 274.114 361.336 273.356 361.336C272.588 361.336 271.975 361.576 271.516 362.056C271.068 362.536 270.844 363.235 270.844 364.152V369H269.388V360.232H270.844V361.48C271.132 361.032 271.522 360.685 272.012 360.44C272.514 360.195 273.063 360.072 273.66 360.072ZM279.079 364.584C279.079 363.688 279.26 362.904 279.623 362.232C279.985 361.549 280.481 361.021 281.111 360.648C281.751 360.275 282.465 360.088 283.255 360.088C283.937 360.088 284.572 360.248 285.159 360.568C285.745 360.877 286.193 361.288 286.503 361.8V357.16H287.975V369H286.503V367.352C286.215 367.875 285.788 368.307 285.223 368.648C284.657 368.979 283.996 369.144 283.239 369.144C282.46 369.144 281.751 368.952 281.111 368.568C280.481 368.184 279.985 367.645 279.623 366.952C279.26 366.259 279.079 365.469 279.079 364.584ZM286.503 364.6C286.503 363.939 286.369 363.363 286.103 362.872C285.836 362.381 285.473 362.008 285.015 361.752C284.567 361.485 284.071 361.352 283.527 361.352C282.983 361.352 282.487 361.48 282.039 361.736C281.591 361.992 281.233 362.365 280.967 362.856C280.7 363.347 280.567 363.923 280.567 364.584C280.567 365.256 280.7 365.843 280.967 366.344C281.233 366.835 281.591 367.213 282.039 367.48C282.487 367.736 282.983 367.864 283.527 367.864C284.071 367.864 284.567 367.736 285.015 367.48C285.473 367.213 285.836 366.835 286.103 366.344C286.369 365.843 286.503 365.261 286.503 364.6ZM296.515 362.52V363.752H290.131V362.52H296.515ZM304.304 369.112C303.269 369.112 302.325 368.872 301.472 368.392C300.618 367.901 299.941 367.224 299.44 366.36C298.949 365.485 298.704 364.504 298.704 363.416C298.704 362.328 298.949 361.352 299.44 360.488C299.941 359.613 300.618 358.936 301.472 358.456C302.325 357.965 303.269 357.72 304.304 357.72C305.349 357.72 306.298 357.965 307.152 358.456C308.005 358.936 308.677 359.608 309.168 360.472C309.658 361.336 309.904 362.317 309.904 363.416C309.904 364.515 309.658 365.496 309.168 366.36C308.677 367.224 308.005 367.901 307.152 368.392C306.298 368.872 305.349 369.112 304.304 369.112ZM304.304 367.848C305.082 367.848 305.781 367.667 306.4 367.304C307.029 366.941 307.52 366.424 307.872 365.752C308.234 365.08 308.416 364.301 308.416 363.416C308.416 362.52 308.234 361.741 307.872 361.08C307.52 360.408 307.034 359.891 306.416 359.528C305.797 359.165 305.093 358.984 304.304 358.984C303.514 358.984 302.81 359.165 302.192 359.528C301.573 359.891 301.082 360.408 300.72 361.08C300.368 361.741 300.192 362.52 300.192 363.416C300.192 364.301 300.368 365.08 300.72 365.752C301.082 366.424 301.573 366.941 302.192 367.304C302.821 367.667 303.525 367.848 304.304 367.848ZM315.394 361.432H313.554V369H312.098V361.432H310.962V360.232H312.098V359.608C312.098 358.627 312.348 357.912 312.85 357.464C313.362 357.005 314.178 356.776 315.298 356.776V357.992C314.658 357.992 314.204 358.12 313.938 358.376C313.682 358.621 313.554 359.032 313.554 359.608V360.232H315.394V361.432ZM320.659 361.432H318.819V369H317.363V361.432H316.227V360.232H317.363V359.608C317.363 358.627 317.614 357.912 318.115 357.464C318.627 357.005 319.443 356.776 320.563 356.776V357.992C319.923 357.992 319.47 358.12 319.203 358.376C318.947 358.621 318.819 359.032 318.819 359.608V360.232H320.659V361.432Z" fill="#2D3748"/>
<path d="M250.656 313.848V320.904C250.656 321.896 250.896 322.632 251.376 323.112C251.867 323.592 252.544 323.832 253.408 323.832C254.261 323.832 254.928 323.592 255.408 323.112C255.899 322.632 256.144 321.896 256.144 320.904V313.848H257.6V320.888C257.6 321.816 257.413 322.6 257.04 323.24C256.667 323.869 256.16 324.339 255.52 324.648C254.891 324.957 254.181 325.112 253.392 325.112C252.603 325.112 251.888 324.957 251.248 324.648C250.619 324.339 250.117 323.869 249.744 323.24C249.381 322.6 249.2 321.816 249.2 320.888V313.848H250.656ZM261.485 313.848V325H260.029V313.848H261.485ZM271.704 313.848C272.92 313.848 273.971 314.077 274.856 314.536C275.752 314.984 276.435 315.629 276.904 316.472C277.384 317.315 277.624 318.307 277.624 319.448C277.624 320.589 277.384 321.581 276.904 322.424C276.435 323.256 275.752 323.896 274.856 324.344C273.971 324.781 272.92 325 271.704 325H268.232V313.848H271.704ZM271.704 323.8C273.144 323.8 274.243 323.421 275 322.664C275.757 321.896 276.136 320.824 276.136 319.448C276.136 318.061 275.752 316.979 274.984 316.2C274.227 315.421 273.133 315.032 271.704 315.032H269.688V323.8H271.704ZM287.545 320.28C287.545 320.557 287.529 320.851 287.497 321.16H280.489C280.542 322.024 280.835 322.701 281.369 323.192C281.913 323.672 282.569 323.912 283.337 323.912C283.966 323.912 284.489 323.768 284.905 323.48C285.331 323.181 285.63 322.787 285.801 322.296H287.369C287.134 323.139 286.665 323.827 285.961 324.36C285.257 324.883 284.382 325.144 283.337 325.144C282.505 325.144 281.758 324.957 281.097 324.584C280.446 324.211 279.934 323.683 279.561 323C279.187 322.307 279.001 321.507 279.001 320.6C279.001 319.693 279.182 318.899 279.545 318.216C279.907 317.533 280.414 317.011 281.065 316.648C281.726 316.275 282.483 316.088 283.337 316.088C284.169 316.088 284.905 316.269 285.545 316.632C286.185 316.995 286.675 317.496 287.017 318.136C287.369 318.765 287.545 319.48 287.545 320.28ZM286.041 319.976C286.041 319.421 285.918 318.947 285.673 318.552C285.427 318.147 285.091 317.843 284.665 317.64C284.249 317.427 283.785 317.32 283.273 317.32C282.537 317.32 281.907 317.555 281.385 318.024C280.873 318.493 280.579 319.144 280.505 319.976H286.041ZM292.57 325.144C291.898 325.144 291.296 325.032 290.762 324.808C290.229 324.573 289.808 324.253 289.498 323.848C289.189 323.432 289.018 322.957 288.986 322.424H290.49C290.533 322.861 290.736 323.219 291.098 323.496C291.472 323.773 291.957 323.912 292.554 323.912C293.109 323.912 293.546 323.789 293.866 323.544C294.186 323.299 294.346 322.989 294.346 322.616C294.346 322.232 294.176 321.949 293.834 321.768C293.493 321.576 292.965 321.389 292.25 321.208C291.6 321.037 291.066 320.867 290.65 320.696C290.245 320.515 289.893 320.253 289.594 319.912C289.306 319.56 289.162 319.101 289.162 318.536C289.162 318.088 289.296 317.677 289.562 317.304C289.829 316.931 290.208 316.637 290.698 316.424C291.189 316.2 291.749 316.088 292.378 316.088C293.349 316.088 294.133 316.333 294.73 316.824C295.328 317.315 295.648 317.987 295.69 318.84H294.234C294.202 318.381 294.016 318.013 293.674 317.736C293.344 317.459 292.896 317.32 292.33 317.32C291.808 317.32 291.392 317.432 291.082 317.656C290.773 317.88 290.618 318.173 290.618 318.536C290.618 318.824 290.709 319.064 290.89 319.256C291.082 319.437 291.317 319.587 291.594 319.704C291.882 319.811 292.277 319.933 292.778 320.072C293.408 320.243 293.92 320.413 294.314 320.584C294.709 320.744 295.045 320.989 295.322 321.32C295.61 321.651 295.76 322.083 295.77 322.616C295.77 323.096 295.637 323.528 295.37 323.912C295.104 324.296 294.725 324.6 294.234 324.824C293.754 325.037 293.2 325.144 292.57 325.144ZM298.578 314.808C298.3 314.808 298.066 314.712 297.874 314.52C297.682 314.328 297.586 314.093 297.586 313.816C297.586 313.539 297.682 313.304 297.874 313.112C298.066 312.92 298.3 312.824 298.578 312.824C298.844 312.824 299.068 312.92 299.25 313.112C299.442 313.304 299.538 313.539 299.538 313.816C299.538 314.093 299.442 314.328 299.25 314.52C299.068 314.712 298.844 314.808 298.578 314.808ZM299.282 316.232V325H297.826V316.232H299.282ZM305.379 316.088C306.137 316.088 306.798 316.253 307.363 316.584C307.939 316.915 308.366 317.331 308.643 317.832V316.232H310.115V325.192C310.115 325.992 309.945 326.701 309.603 327.32C309.262 327.949 308.771 328.44 308.131 328.792C307.502 329.144 306.766 329.32 305.923 329.32C304.771 329.32 303.811 329.048 303.043 328.504C302.275 327.96 301.822 327.219 301.683 326.28H303.123C303.283 326.813 303.614 327.24 304.115 327.56C304.617 327.891 305.219 328.056 305.923 328.056C306.723 328.056 307.374 327.805 307.875 327.304C308.387 326.803 308.643 326.099 308.643 325.192V323.352C308.355 323.864 307.929 324.291 307.363 324.632C306.798 324.973 306.137 325.144 305.379 325.144C304.601 325.144 303.891 324.952 303.251 324.568C302.622 324.184 302.126 323.645 301.763 322.952C301.401 322.259 301.219 321.469 301.219 320.584C301.219 319.688 301.401 318.904 301.763 318.232C302.126 317.549 302.622 317.021 303.251 316.648C303.891 316.275 304.601 316.088 305.379 316.088ZM308.643 320.6C308.643 319.939 308.51 319.363 308.243 318.872C307.977 318.381 307.614 318.008 307.155 317.752C306.707 317.485 306.211 317.352 305.667 317.352C305.123 317.352 304.627 317.48 304.179 317.736C303.731 317.992 303.374 318.365 303.107 318.856C302.841 319.347 302.707 319.923 302.707 320.584C302.707 321.256 302.841 321.843 303.107 322.344C303.374 322.835 303.731 323.213 304.179 323.48C304.627 323.736 305.123 323.864 305.667 323.864C306.211 323.864 306.707 323.736 307.155 323.48C307.614 323.213 307.977 322.835 308.243 322.344C308.51 321.843 308.643 321.261 308.643 320.6ZM316.848 316.072C317.914 316.072 318.778 316.397 319.44 317.048C320.101 317.688 320.432 318.616 320.432 319.832V325H318.992V320.04C318.992 319.165 318.773 318.499 318.336 318.04C317.898 317.571 317.301 317.336 316.544 317.336C315.776 317.336 315.162 317.576 314.704 318.056C314.256 318.536 314.032 319.235 314.032 320.152V325H312.576V316.232H314.032V317.48C314.32 317.032 314.709 316.685 315.2 316.44C315.701 316.195 316.25 316.072 316.848 316.072Z" fill="#2D3748"/>
<path d="M12 404.248V406.96H5.016V411.256H10.368V413.92H5.016V421H1.656V404.248H12ZM17.7426 409.768C18.1746 409.064 18.7346 408.512 19.4226 408.112C20.1266 407.712 20.9266 407.512 21.8226 407.512V411.04H20.9346C19.8786 411.04 19.0786 411.288 18.5346 411.784C18.0066 412.28 17.7426 413.144 17.7426 414.376V421H14.3826V407.704H17.7426V409.768ZM29.9897 421.216C28.7097 421.216 27.5577 420.936 26.5337 420.376C25.5097 419.8 24.7017 418.992 24.1097 417.952C23.5337 416.912 23.2457 415.712 23.2457 414.352C23.2457 412.992 23.5417 411.792 24.1337 410.752C24.7417 409.712 25.5657 408.912 26.6057 408.352C27.6457 407.776 28.8057 407.488 30.0857 407.488C31.3657 407.488 32.5257 407.776 33.5657 408.352C34.6057 408.912 35.4217 409.712 36.0137 410.752C36.6217 411.792 36.9257 412.992 36.9257 414.352C36.9257 415.712 36.6137 416.912 35.9897 417.952C35.3817 418.992 34.5497 419.8 33.4937 420.376C32.4537 420.936 31.2857 421.216 29.9897 421.216ZM29.9897 418.288C30.5977 418.288 31.1657 418.144 31.6937 417.856C32.2377 417.552 32.6697 417.104 32.9897 416.512C33.3097 415.92 33.4697 415.2 33.4697 414.352C33.4697 413.088 33.1337 412.12 32.4617 411.448C31.8057 410.76 30.9977 410.416 30.0377 410.416C29.0777 410.416 28.2697 410.76 27.6137 411.448C26.9737 412.12 26.6537 413.088 26.6537 414.352C26.6537 415.616 26.9657 416.592 27.5897 417.28C28.2297 417.952 29.0297 418.288 29.9897 418.288ZM46.7584 407.512C48.3424 407.512 49.6224 408.016 50.5984 409.024C51.5744 410.016 52.0624 411.408 52.0624 413.2V421H48.7024V413.656C48.7024 412.6 48.4384 411.792 47.9104 411.232C47.3824 410.656 46.6624 410.368 45.7504 410.368C44.8224 410.368 44.0864 410.656 43.5424 411.232C43.0144 411.792 42.7504 412.6 42.7504 413.656V421H39.3904V407.704H42.7504V409.36C43.1984 408.784 43.7664 408.336 44.4544 408.016C45.1584 407.68 45.9264 407.512 46.7584 407.512ZM59.1696 410.464V416.896C59.1696 417.344 59.2736 417.672 59.4816 417.88C59.7056 418.072 60.0736 418.168 60.5856 418.168H62.1456V421H60.0336C57.2016 421 55.7856 419.624 55.7856 416.872V410.464H54.2016V407.704H55.7856V404.416H59.1696V407.704H62.1456V410.464H59.1696ZM74.7863 411.016V413.848H64.6103V411.016H74.7863ZM90.9144 414.064C90.9144 414.544 90.8824 414.976 90.8184 415.36H81.0984C81.1784 416.32 81.5144 417.072 82.1064 417.616C82.6984 418.16 83.4264 418.432 84.2904 418.432C85.5384 418.432 86.4264 417.896 86.9544 416.824H90.5784C90.1944 418.104 89.4584 419.16 88.3704 419.992C87.2824 420.808 85.9464 421.216 84.3624 421.216C83.0824 421.216 81.9304 420.936 80.9064 420.376C79.8984 419.8 79.1064 418.992 78.5304 417.952C77.9704 416.912 77.6904 415.712 77.6904 414.352C77.6904 412.976 77.9704 411.768 78.5304 410.728C79.0904 409.688 79.8744 408.888 80.8824 408.328C81.8904 407.768 83.0504 407.488 84.3624 407.488C85.6264 407.488 86.7544 407.76 87.7464 408.304C88.7544 408.848 89.5304 409.624 90.0744 410.632C90.6344 411.624 90.9144 412.768 90.9144 414.064ZM87.4344 413.104C87.4184 412.24 87.1064 411.552 86.4984 411.04C85.8904 410.512 85.1464 410.248 84.2664 410.248C83.4344 410.248 82.7304 410.504 82.1544 411.016C81.5944 411.512 81.2504 412.208 81.1224 413.104H87.4344ZM100.735 407.512C102.319 407.512 103.599 408.016 104.575 409.024C105.551 410.016 106.039 411.408 106.039 413.2V421H102.679V413.656C102.679 412.6 102.415 411.792 101.887 411.232C101.359 410.656 100.639 410.368 99.7269 410.368C98.7989 410.368 98.0629 410.656 97.5189 411.232C96.9909 411.792 96.7269 412.6 96.7269 413.656V421H93.3669V407.704H96.7269V409.36C97.1749 408.784 97.7429 408.336 98.4309 408.016C99.1349 407.68 99.9029 407.512 100.735 407.512ZM108.37 414.304C108.37 412.96 108.634 411.768 109.162 410.728C109.706 409.688 110.442 408.888 111.37 408.328C112.298 407.768 113.33 407.488 114.466 407.488C115.33 407.488 116.154 407.68 116.938 408.064C117.722 408.432 118.346 408.928 118.81 409.552V403.24H122.218V421H118.81V419.032C118.394 419.688 117.81 420.216 117.058 420.616C116.306 421.016 115.434 421.216 114.442 421.216C113.322 421.216 112.298 420.928 111.37 420.352C110.442 419.776 109.706 418.968 109.162 417.928C108.634 416.872 108.37 415.664 108.37 414.304ZM118.834 414.352C118.834 413.536 118.674 412.84 118.354 412.264C118.034 411.672 117.602 411.224 117.058 410.92C116.514 410.6 115.93 410.44 115.306 410.44C114.682 410.44 114.106 410.592 113.578 410.896C113.05 411.2 112.618 411.648 112.282 412.24C111.962 412.816 111.802 413.504 111.802 414.304C111.802 415.104 111.962 415.808 112.282 416.416C112.618 417.008 113.05 417.464 113.578 417.784C114.122 418.104 114.698 418.264 115.306 418.264C115.93 418.264 116.514 418.112 117.058 417.808C117.602 417.488 118.034 417.04 118.354 416.464C118.674 415.872 118.834 415.168 118.834 414.352Z" fill="#553C9A"/>
<path d="M75.7003 445.928V457H74.2443V448.744L70.5643 457H69.5403L65.8443 448.728V457H64.3883V445.928H65.9563L70.0523 455.08L74.1483 445.928H75.7003ZM77.6255 452.584C77.6255 451.688 77.8068 450.904 78.1695 450.232C78.5322 449.549 79.0282 449.021 79.6575 448.648C80.2975 448.275 81.0068 448.088 81.7855 448.088C82.5535 448.088 83.2202 448.253 83.7855 448.584C84.3508 448.915 84.7722 449.331 85.0495 449.832V448.232H86.5215V457H85.0495V455.368C84.7615 455.88 84.3295 456.307 83.7535 456.648C83.1882 456.979 82.5268 457.144 81.7695 457.144C80.9908 457.144 80.2868 456.952 79.6575 456.568C79.0282 456.184 78.5322 455.645 78.1695 454.952C77.8068 454.259 77.6255 453.469 77.6255 452.584ZM85.0495 452.6C85.0495 451.939 84.9162 451.363 84.6495 450.872C84.3828 450.381 84.0202 450.008 83.5615 449.752C83.1135 449.485 82.6175 449.352 82.0735 449.352C81.5295 449.352 81.0335 449.48 80.5855 449.736C80.1375 449.992 79.7802 450.365 79.5135 450.856C79.2468 451.347 79.1135 451.923 79.1135 452.584C79.1135 453.256 79.2468 453.843 79.5135 454.344C79.7802 454.835 80.1375 455.213 80.5855 455.48C81.0335 455.736 81.5295 455.864 82.0735 455.864C82.6175 455.864 83.1135 455.736 83.5615 455.48C84.0202 455.213 84.3828 454.835 84.6495 454.344C84.9162 453.843 85.0495 453.261 85.0495 452.6ZM90.438 449.656C90.694 449.155 91.0567 448.765 91.526 448.488C92.006 448.211 92.5873 448.072 93.27 448.072V449.576H92.886C91.254 449.576 90.438 450.461 90.438 452.232V457H88.982V448.232H90.438V449.656ZM99.8468 457L96.4068 453.128V457H94.9508V445.16H96.4068V452.12L99.7828 448.232H101.815L97.6868 452.6L101.831 457H99.8468ZM110.961 448.232V457H109.505V455.704C109.228 456.152 108.838 456.504 108.337 456.76C107.846 457.005 107.302 457.128 106.705 457.128C106.022 457.128 105.409 456.989 104.865 456.712C104.321 456.424 103.889 455.997 103.569 455.432C103.26 454.867 103.105 454.179 103.105 453.368V448.232H104.545V453.176C104.545 454.04 104.764 454.707 105.201 455.176C105.638 455.635 106.236 455.864 106.993 455.864C107.772 455.864 108.385 455.624 108.833 455.144C109.281 454.664 109.505 453.965 109.505 453.048V448.232H110.961ZM114.876 449.848C115.164 449.347 115.59 448.931 116.156 448.6C116.732 448.259 117.398 448.088 118.156 448.088C118.934 448.088 119.638 448.275 120.267 448.648C120.907 449.021 121.409 449.549 121.772 450.232C122.134 450.904 122.316 451.688 122.316 452.584C122.316 453.469 122.134 454.259 121.772 454.952C121.409 455.645 120.907 456.184 120.267 456.568C119.638 456.952 118.934 457.144 118.156 457.144C117.409 457.144 116.748 456.979 116.172 456.648C115.606 456.307 115.174 455.885 114.876 455.384V461.16H113.42V448.232H114.876V449.848ZM120.828 452.584C120.828 451.923 120.694 451.347 120.428 450.856C120.161 450.365 119.798 449.992 119.34 449.736C118.892 449.48 118.396 449.352 117.852 449.352C117.318 449.352 116.822 449.485 116.364 449.752C115.916 450.008 115.553 450.387 115.276 450.888C115.009 451.379 114.876 451.949 114.876 452.6C114.876 453.261 115.009 453.843 115.276 454.344C115.553 454.835 115.916 455.213 116.364 455.48C116.822 455.736 117.318 455.864 117.852 455.864C118.396 455.864 118.892 455.736 119.34 455.48C119.798 455.213 120.161 454.835 120.428 454.344C120.694 453.843 120.828 453.256 120.828 452.584Z" fill="#2D3748"/>
<path d="M32.3641 489.848V491.032H27.5161V494.792H31.4521V495.976H27.5161V501H26.0601V489.848H32.3641ZM35.5786 493.656C35.8346 493.155 36.1973 492.765 36.6666 492.488C37.1466 492.211 37.728 492.072 38.4106 492.072V493.576H38.0266C36.3946 493.576 35.5786 494.461 35.5786 496.232V501H34.1226V492.232H35.5786V493.656ZM39.5474 496.584C39.5474 495.688 39.7287 494.904 40.0914 494.232C40.454 493.549 40.95 493.021 41.5794 492.648C42.2194 492.275 42.9287 492.088 43.7074 492.088C44.4754 492.088 45.142 492.253 45.7074 492.584C46.2727 492.915 46.694 493.331 46.9714 493.832V492.232H48.4434V501H46.9714V499.368C46.6834 499.88 46.2514 500.307 45.6754 500.648C45.11 500.979 44.4487 501.144 43.6914 501.144C42.9127 501.144 42.2087 500.952 41.5794 500.568C40.95 500.184 40.454 499.645 40.0914 498.952C39.7287 498.259 39.5474 497.469 39.5474 496.584ZM46.9714 496.6C46.9714 495.939 46.838 495.363 46.5714 494.872C46.3047 494.381 45.942 494.008 45.4834 493.752C45.0354 493.485 44.5394 493.352 43.9954 493.352C43.4514 493.352 42.9554 493.48 42.5074 493.736C42.0594 493.992 41.702 494.365 41.4354 494.856C41.1687 495.347 41.0354 495.923 41.0354 496.584C41.0354 497.256 41.1687 497.843 41.4354 498.344C41.702 498.835 42.0594 499.213 42.5074 499.48C42.9554 499.736 43.4514 499.864 43.9954 499.864C44.5394 499.864 45.0354 499.736 45.4834 499.48C45.942 499.213 46.3047 498.835 46.5714 498.344C46.838 497.843 46.9714 497.261 46.9714 496.6ZM61.4479 492.072C62.1305 492.072 62.7385 492.216 63.2719 492.504C63.8052 492.781 64.2265 493.203 64.5359 493.768C64.8452 494.333 64.9999 495.021 64.9999 495.832V501H63.5599V496.04C63.5599 495.165 63.3412 494.499 62.9039 494.04C62.4772 493.571 61.8959 493.336 61.1599 493.336C60.4025 493.336 59.7999 493.581 59.3519 494.072C58.9039 494.552 58.6799 495.251 58.6799 496.168V501H57.2399V496.04C57.2399 495.165 57.0212 494.499 56.5839 494.04C56.1572 493.571 55.5759 493.336 54.8399 493.336C54.0825 493.336 53.4799 493.581 53.0319 494.072C52.5839 494.552 52.3599 495.251 52.3599 496.168V501H50.9039V492.232H52.3599V493.496C52.6479 493.037 53.0319 492.685 53.5119 492.44C54.0025 492.195 54.5412 492.072 55.1279 492.072C55.8639 492.072 56.5145 492.237 57.0799 492.568C57.6452 492.899 58.0665 493.384 58.3439 494.024C58.5892 493.405 58.9945 492.925 59.5599 492.584C60.1252 492.243 60.7545 492.072 61.4479 492.072ZM75.3883 496.28C75.3883 496.557 75.3723 496.851 75.3403 497.16H68.3323C68.3856 498.024 68.6789 498.701 69.2123 499.192C69.7563 499.672 70.4123 499.912 71.1803 499.912C71.8096 499.912 72.3323 499.768 72.7483 499.48C73.1749 499.181 73.4736 498.787 73.6443 498.296H75.2123C74.9776 499.139 74.5083 499.827 73.8043 500.36C73.1003 500.883 72.2256 501.144 71.1803 501.144C70.3483 501.144 69.6016 500.957 68.9403 500.584C68.2896 500.211 67.7776 499.683 67.4043 499C67.0309 498.307 66.8443 497.507 66.8443 496.6C66.8443 495.693 67.0256 494.899 67.3883 494.216C67.7509 493.533 68.2576 493.011 68.9083 492.648C69.5696 492.275 70.3269 492.088 71.1803 492.088C72.0123 492.088 72.7483 492.269 73.3883 492.632C74.0283 492.995 74.5189 493.496 74.8603 494.136C75.2123 494.765 75.3883 495.48 75.3883 496.28ZM73.8843 495.976C73.8843 495.421 73.7616 494.947 73.5163 494.552C73.2709 494.147 72.9349 493.843 72.5083 493.64C72.0923 493.427 71.6283 493.32 71.1163 493.32C70.3803 493.32 69.7509 493.555 69.2283 494.024C68.7163 494.493 68.4229 495.144 68.3483 495.976H73.8843ZM88.9901 492.232L86.2541 501H84.7501L82.6381 494.04L80.5261 501H79.0221L76.2701 492.232H77.7581L79.7741 499.592L81.9501 492.232H83.4381L85.5661 499.608L87.5501 492.232H88.9901ZM94.2591 501.144C93.4378 501.144 92.6911 500.957 92.0191 500.584C91.3578 500.211 90.8351 499.683 90.4511 499C90.0778 498.307 89.8911 497.507 89.8911 496.6C89.8911 495.704 90.0831 494.915 90.4671 494.232C90.8618 493.539 91.3951 493.011 92.0671 492.648C92.7391 492.275 93.4911 492.088 94.3231 492.088C95.1551 492.088 95.9071 492.275 96.5791 492.648C97.2511 493.011 97.7791 493.533 98.1631 494.216C98.5578 494.899 98.7551 495.693 98.7551 496.6C98.7551 497.507 98.5525 498.307 98.1471 499C97.7525 499.683 97.2138 500.211 96.5311 500.584C95.8485 500.957 95.0911 501.144 94.2591 501.144ZM94.2591 499.864C94.7818 499.864 95.2725 499.741 95.7311 499.496C96.1898 499.251 96.5578 498.883 96.8351 498.392C97.1231 497.901 97.2671 497.304 97.2671 496.6C97.2671 495.896 97.1285 495.299 96.8511 494.808C96.5738 494.317 96.2111 493.955 95.7631 493.72C95.3151 493.475 94.8298 493.352 94.3071 493.352C93.7738 493.352 93.2831 493.475 92.8351 493.72C92.3978 493.955 92.0458 494.317 91.7791 494.808C91.5125 495.299 91.3791 495.896 91.3791 496.6C91.3791 497.315 91.5071 497.917 91.7631 498.408C92.0298 498.899 92.3818 499.267 92.8191 499.512C93.2565 499.747 93.7365 499.864 94.2591 499.864ZM102.126 493.656C102.382 493.155 102.744 492.765 103.214 492.488C103.694 492.211 104.275 492.072 104.958 492.072V493.576H104.574C102.942 493.576 102.126 494.461 102.126 496.232V501H100.67V492.232H102.126V493.656ZM111.534 501L108.094 497.128V501H106.638V489.16H108.094V496.12L111.47 492.232H113.502L109.374 496.6L113.518 501H111.534ZM117.977 501.144C117.305 501.144 116.702 501.032 116.169 500.808C115.635 500.573 115.214 500.253 114.905 499.848C114.595 499.432 114.425 498.957 114.393 498.424H115.897C115.939 498.861 116.142 499.219 116.505 499.496C116.878 499.773 117.363 499.912 117.961 499.912C118.515 499.912 118.953 499.789 119.273 499.544C119.593 499.299 119.753 498.989 119.753 498.616C119.753 498.232 119.582 497.949 119.241 497.768C118.899 497.576 118.371 497.389 117.657 497.208C117.006 497.037 116.473 496.867 116.057 496.696C115.651 496.515 115.299 496.253 115.001 495.912C114.713 495.56 114.569 495.101 114.569 494.536C114.569 494.088 114.702 493.677 114.969 493.304C115.235 492.931 115.614 492.637 116.105 492.424C116.595 492.2 117.155 492.088 117.785 492.088C118.755 492.088 119.539 492.333 120.137 492.824C120.734 493.315 121.054 493.987 121.097 494.84H119.641C119.609 494.381 119.422 494.013 119.081 493.736C118.75 493.459 118.302 493.32 117.737 493.32C117.214 493.32 116.798 493.432 116.489 493.656C116.179 493.88 116.025 494.173 116.025 494.536C116.025 494.824 116.115 495.064 116.297 495.256C116.489 495.437 116.723 495.587 117.001 495.704C117.289 495.811 117.683 495.933 118.185 496.072C118.814 496.243 119.326 496.413 119.721 496.584C120.115 496.744 120.451 496.989 120.729 497.32C121.017 497.651 121.166 498.083 121.177 498.616C121.177 499.096 121.043 499.528 120.777 499.912C120.51 500.296 120.131 500.6 119.641 500.824C119.161 501.037 118.606 501.144 117.977 501.144Z" fill="#2D3748"/>
</svg>
